<svg xmlns="http://www.w3.org/2000/svg" width="1200" height="520" viewBox="0 0 1200 520" role="img" aria-label="Logged In Google Chrome Skill release notes header">
  <defs>
    <linearGradient id="bg" x1="0" x2="1" y1="0" y2="1">
      <stop offset="0%" stop-color="#f6fbff"/>
      <stop offset="55%" stop-color="#eef5ff"/>
      <stop offset="100%" stop-color="#fff5e8"/>
    </linearGradient>
    <linearGradient id="line" x1="0" x2="1" y1="0" y2="0">
      <stop offset="0%" stop-color="#4285f4"/>
      <stop offset="35%" stop-color="#34a853"/>
      <stop offset="68%" stop-color="#fbbc05"/>
      <stop offset="100%" stop-color="#ea4335"/>
    </linearGradient>
    <filter id="shadow" x="-20%" y="-20%" width="140%" height="160%">
      <feDropShadow dx="0" dy="16" stdDeviation="20" flood-color="#8baeea" flood-opacity="0.18"/>
    </filter>
  </defs>

  <rect width="1200" height="520" rx="32" fill="url(#bg)"/>
  <rect x="36" y="36" width="1128" height="448" rx="28" fill="#ffffff" stroke="#dce8ff" stroke-width="3"/>
  <rect x="36" y="36" width="1128" height="12" rx="6" fill="url(#line)"/>

  <g filter="url(#shadow)">
    <rect x="86" y="106" width="290" height="290" rx="44" fill="#f8fbff"/>
    <circle cx="231" cy="251" r="106" fill="#4285f4"/>
    <circle cx="231" cy="251" r="68" fill="#ffffff"/>
    <circle cx="231" cy="251" r="40" fill="#34a853"/>
    <path d="M231 145a106 106 0 0 1 92 53H231Z" fill="#ea4335"/>
    <path d="M137 199a106 106 0 0 0 94 158l46-78h-81Z" fill="#fbbc05"/>

    <rect x="294" y="256" width="128" height="102" rx="22" fill="#ffffff" stroke="#dce8ff" stroke-width="3"/>
    <rect x="321" y="282" width="74" height="10" rx="5" fill="#4285f4"/>
    <rect x="321" y="306" width="48" height="10" rx="5" fill="#34a853"/>
    <rect x="321" y="330" width="58" height="10" rx="5" fill="#ea4335"/>
  </g>

  <text x="458" y="154" fill="#0f172a" font-family="Segoe UI, Arial, sans-serif" font-size="54" font-weight="700">
    Release Notes
  </text>
  <text x="458" y="208" fill="#334155" font-family="Segoe UI, Arial, sans-serif" font-size="28">
    Logged In Google Chrome Skill
  </text>
  <text x="458" y="250" fill="#475569" font-family="Segoe UI, Arial, sans-serif" font-size="24">
    Current repository draft for the first public release.
  </text>
  <g transform="translate(956 92)">
    <rect width="152" height="48" rx="16" fill="#0f172a"/>
    <text x="26" y="32" fill="#ffffff" font-family="Segoe UI, Arial, sans-serif" font-size="24" font-weight="700">
      v1.0.0
    </text>
  </g>

  <g transform="translate(458 302)">
    <rect width="194" height="54" rx="16" fill="#4285f4"/>
    <text x="33" y="35" fill="#ffffff" font-family="Segoe UI, Arial, sans-serif" font-size="22" font-weight="700">
      Manual Login
    </text>
  </g>
  <g transform="translate(670 302)">
    <rect width="170" height="54" rx="16" fill="#34a853"/>
    <text x="32" y="35" fill="#ffffff" font-family="Segoe UI, Arial, sans-serif" font-size="22" font-weight="700">
      CDP Attach
    </text>
  </g>
  <g transform="translate(858 302)">
    <rect width="224" height="54" rx="16" fill="#ea4335"/>
    <text x="34" y="35" fill="#ffffff" font-family="Segoe UI, Arial, sans-serif" font-size="22" font-weight="700">
      Bilingual Docs
    </text>
  </g>

  <g transform="translate(462 398)">
    <line x1="0" y1="0" x2="530" y2="0" stroke="#d7e5ff" stroke-width="6" stroke-linecap="round"/>
    <circle cx="24" cy="0" r="12" fill="#4285f4"/>
    <circle cx="184" cy="0" r="12" fill="#34a853"/>
    <circle cx="344" cy="0" r="12" fill="#fbbc05"/>
    <circle cx="504" cy="0" r="12" fill="#ea4335"/>
    <text x="0" y="38" fill="#475569" font-family="Segoe UI, Arial, sans-serif" font-size="20">
      Launch
    </text>
    <text x="134" y="38" fill="#475569" font-family="Segoe UI, Arial, sans-serif" font-size="20">
      Login
    </text>
    <text x="286" y="38" fill="#475569" font-family="Segoe UI, Arial, sans-serif" font-size="20">
      Attach
    </text>
    <text x="444" y="38" fill="#475569" font-family="Segoe UI, Arial, sans-serif" font-size="20">
      Reuse
    </text>
  </g>
</svg>
